<?xml version="1.0" standalone="no"?>
<!DOCTYPE svg PUBLIC "-//W3C//DTD SVG 20010904//EN"
 "http://www.w3.org/TR/2001/REC-SVG-20010904/DTD/svg10.dtd">
<svg version="1.0" xmlns="http://www.w3.org/2000/svg"
 width="300.000000pt" height="300.000000pt" viewBox="0 0 300.000000 300.000000"
 preserveAspectRatio="xMidYMid meet">

<g transform="translate(0.000000,300.000000) scale(0.100000,-0.100000)"
fill="#000000" stroke="none">
<path d="M0 1500 l0 -1500 1500 0 1500 0 0 1500 0 1500 -1500 0 -1500 0 0
-1500z m763 638 c3 -95 12 -211 21 -258 46 -252 143 -478 293 -680 74 -99 239
-261 341 -333 l81 -59 73 51 c40 28 87 63 103 77 28 24 29 26 12 37 -182 116
-271 189 -367 302 -219 259 -320 537 -320 886 l0 149 790 0 790 0 0 -107 c0
-501 -151 -927 -460 -1296 -86 -103 -222 -229 -330 -306 -82 -58 -271 -171
-287 -171 -19 0 -199 106 -293 173 -115 82 -349 319 -432 437 -143 201 -261
476 -314 725 -22 99 -27 156 -31 333 l-5 212 164 0 165 0 6 -172z"/>
<path d="M1350 1967 c0 -7 7 -39 15 -71 54 -208 189 -412 356 -542 60 -46 195
-124 217 -124 32 0 169 257 222 419 30 88 70 268 70 311 0 20 -9 20 -440 20
-353 0 -440 -3 -440 -13z"/>
</g>
</svg>
