<svg xmlns="http://www.w3.org/2000/svg" version="1.0" width="300.000000pt" height="300.000000pt" viewBox="0 0 300.000000 300.000000" preserveAspectRatio="xMidYMid meet">

<g transform="translate(0.000000,300.000000) scale(0.100000,-0.100000)" fill="#000000" stroke="none">
<path d="M424 2143 c12 -291 54 -503 147 -728 126 -307 346 -592 612 -791 138 -104 301 -198 330 -190 12 3 65 31 117 62 607 363 950 975 950 1695 l0 119 -790 0 -790 0 0 -148 c0 -292 64 -515 215 -747 118 -182 264 -319 471 -441 18 -10 17 -13 -11 -37 -17 -15 -62 -49 -101 -76 l-71 -50 -54 36 c-223 148 -414 373 -533 624 -110 235 -156 448 -156 730 l0 109 -172 0 -171 0 7 -167z m1806 -184 c0 -41 -42 -226 -71 -314 -17 -49 -47 -126 -68 -170 -43 -92 -138 -245 -152 -245 -16 0 -111 51 -174 93 -77 52 -200 175 -252 252 -75 112 -140 262 -159 368 l-6 37 441 0 c441 0 441 0 441 -21z"/>
</g>
</svg>